<svg id="svg" xmlns="http://www.w3.org/2000/svg" xmlns:xlink="http://www.w3.org/1999/xlink" width="400" height="564.5" viewBox="0, 0, 400,564.5"><g id="svgg"><path id="path0" d="M0.158 111.834 C 0.484 112.684,0.704 115.205,1.219 124.000 C 1.457 128.070,1.804 131.760,1.991 132.200 C 2.177 132.640,2.646 137.860,3.034 143.800 C 3.421 149.740,3.858 154.690,4.004 154.800 C 4.150 154.910,4.598 159.950,5.000 166.000 C 5.402 172.050,5.853 177.090,6.003 177.200 C 6.153 177.310,6.604 182.350,7.006 188.400 C 7.407 194.450,7.856 199.490,8.003 199.600 C 8.150 199.710,8.581 204.660,8.961 210.600 C 9.342 216.540,9.767 221.670,9.906 222.000 C 10.157 222.599,11.237 234.810,12.877 255.600 C 13.355 261.650,13.859 266.690,13.997 266.800 C 14.136 266.910,14.582 271.950,14.988 278.000 C 15.395 284.050,15.848 289.090,15.996 289.200 C 16.143 289.310,16.593 294.350,16.994 300.400 C 17.396 306.450,17.846 311.490,17.994 311.600 C 18.143 311.710,18.593 316.750,18.994 322.800 C 19.396 328.850,19.847 333.890,19.997 334.000 C 20.147 334.110,20.580 339.060,20.959 345.000 C 21.338 350.940,21.806 356.160,21.998 356.600 C 22.190 357.040,22.644 362.080,23.007 367.800 C 23.369 373.520,23.818 378.560,24.004 379.000 C 24.190 379.440,24.661 384.660,25.049 390.600 C 25.437 396.540,25.869 401.490,26.008 401.600 C 26.148 401.710,26.593 406.660,26.997 412.600 C 27.401 418.540,27.850 423.490,27.994 423.600 C 28.139 423.710,28.587 428.795,28.992 434.900 C 29.396 441.005,29.846 446.000,29.993 446.000 C 30.139 446.000,30.590 451.130,30.997 457.400 C 31.403 463.670,31.857 468.800,32.006 468.800 C 32.155 468.800,32.603 473.795,33.003 479.900 C 33.402 486.005,33.852 491.090,34.002 491.200 C 34.152 491.310,34.604 496.350,35.006 502.400 C 35.407 508.450,35.876 513.495,36.047 513.610 C 36.217 513.726,36.412 514.980,36.479 516.397 L 36.600 518.973 39.000 519.618 C 40.320 519.973,41.850 520.448,42.400 520.675 C 42.950 520.902,44.615 521.313,46.100 521.589 C 47.585 521.865,48.800 522.216,48.800 522.369 C 48.800 522.522,50.465 522.982,52.500 523.390 C 54.535 523.799,56.298 524.280,56.419 524.459 C 56.539 524.638,58.069 525.077,59.819 525.436 C 61.568 525.794,63.180 526.231,63.400 526.406 C 63.620 526.580,65.330 527.046,67.200 527.440 C 69.070 527.834,70.690 528.273,70.800 528.415 C 70.910 528.557,72.440 529.001,74.200 529.401 C 75.960 529.801,77.580 530.251,77.800 530.400 C 78.020 530.549,79.640 530.999,81.400 531.399 C 83.160 531.799,84.690 532.245,84.800 532.390 C 84.910 532.535,86.620 532.985,88.600 533.391 C 90.580 533.797,92.298 534.276,92.419 534.456 C 92.539 534.637,94.069 535.077,95.819 535.436 C 97.568 535.794,99.180 536.231,99.400 536.406 C 99.620 536.580,101.330 537.046,103.200 537.440 C 105.070 537.834,106.690 538.273,106.800 538.415 C 106.910 538.557,108.440 539.001,110.200 539.401 C 111.960 539.801,113.580 540.251,113.800 540.400 C 114.020 540.549,115.640 540.999,117.400 541.399 C 119.160 541.799,120.690 542.245,120.800 542.390 C 120.910 542.535,122.620 542.985,124.600 543.391 C 126.580 543.797,128.298 544.276,128.419 544.456 C 128.539 544.637,130.069 545.077,131.819 545.436 C 133.568 545.794,135.180 546.231,135.400 546.406 C 135.620 546.580,137.330 547.046,139.200 547.440 C 141.070 547.834,142.690 548.273,142.800 548.415 C 142.910 548.557,144.440 549.001,146.200 549.401 C 147.960 549.801,149.580 550.251,149.800 550.400 C 150.020 550.549,151.640 550.988,153.400 551.374 C 155.160 551.761,157.140 552.309,157.800 552.591 C 158.460 552.874,160.215 553.340,161.700 553.626 C 163.185 553.912,164.400 554.259,164.400 554.395 C 164.400 554.532,165.930 554.979,167.800 555.388 C 169.670 555.798,171.200 556.248,171.200 556.388 C 171.200 556.528,172.910 556.979,175.000 557.390 C 177.090 557.801,178.800 558.266,178.800 558.423 C 178.800 558.581,180.015 558.931,181.500 559.203 C 182.985 559.474,184.740 559.932,185.400 560.220 C 186.060 560.508,187.950 561.043,189.600 561.409 C 191.250 561.774,192.960 562.240,193.400 562.444 C 197.162 564.184,205.593 564.105,206.333 562.321 C 206.407 562.145,206.741 562.000,207.076 562.000 C 208.064 562.000,213.382 560.669,213.600 560.367 C 213.710 560.214,215.330 559.779,217.200 559.400 C 219.070 559.021,220.690 558.584,220.800 558.429 C 220.910 558.274,222.620 557.815,224.600 557.409 C 226.580 557.003,228.298 556.524,228.419 556.344 C 228.539 556.163,230.069 555.721,231.819 555.361 C 233.568 555.000,235.090 554.576,235.200 554.417 C 235.310 554.259,237.020 553.797,239.000 553.391 C 240.980 552.985,242.690 552.535,242.800 552.390 C 242.910 552.245,244.440 551.795,246.200 551.390 C 247.960 550.985,249.490 550.538,249.600 550.397 C 249.710 550.256,251.330 549.818,253.200 549.423 C 255.070 549.029,256.780 548.568,257.000 548.400 C 257.220 548.232,258.930 547.771,260.800 547.377 C 262.670 546.982,264.290 546.544,264.400 546.403 C 264.510 546.262,266.040 545.815,267.800 545.410 C 269.560 545.005,271.090 544.555,271.200 544.410 C 271.310 544.265,273.020 543.815,275.000 543.409 C 276.980 543.003,278.690 542.541,278.800 542.383 C 278.910 542.224,280.432 541.800,282.181 541.439 C 283.931 541.079,285.461 540.637,285.581 540.456 C 285.702 540.276,287.420 539.797,289.400 539.391 C 291.380 538.985,293.090 538.526,293.200 538.371 C 293.310 538.216,294.930 537.779,296.800 537.400 C 298.670 537.021,300.290 536.586,300.400 536.433 C 300.622 536.126,305.944 534.800,306.957 534.800 C 307.311 534.800,307.600 534.648,307.600 534.463 C 307.600 534.277,309.175 533.798,311.100 533.398 C 313.025 532.998,314.690 532.553,314.800 532.409 C 314.910 532.265,316.434 531.836,318.187 531.457 C 319.939 531.077,321.469 530.624,321.587 530.450 C 321.704 530.276,323.465 529.799,325.500 529.390 C 327.535 528.982,329.200 528.524,329.200 528.373 C 329.200 528.223,330.820 527.785,332.800 527.400 C 334.780 527.015,336.400 526.580,336.400 526.432 C 336.400 526.284,338.020 525.820,340.000 525.400 C 341.980 524.980,343.600 524.516,343.600 524.368 C 343.600 524.220,345.220 523.785,347.200 523.400 C 349.180 523.015,350.800 522.576,350.800 522.424 C 350.800 522.271,352.015 521.912,353.500 521.626 C 354.985 521.340,356.740 520.863,357.400 520.566 C 358.060 520.269,359.680 519.792,361.000 519.506 L 363.400 518.985 363.506 516.392 C 363.564 514.967,363.778 513.440,363.980 513.000 C 364.183 512.560,364.657 507.430,365.033 501.600 C 365.409 495.770,365.844 490.910,365.999 490.800 C 366.154 490.690,366.611 485.515,367.014 479.300 C 367.417 473.085,367.865 468.000,368.010 468.000 C 368.155 468.000,368.604 463.005,369.008 456.900 C 369.413 450.795,369.860 445.710,370.004 445.600 C 370.147 445.490,370.579 440.630,370.964 434.800 C 371.350 428.970,371.815 423.840,371.998 423.400 C 372.182 422.960,372.632 417.920,372.998 412.200 C 373.364 406.480,373.818 401.440,374.006 401.000 C 374.195 400.560,374.657 395.430,375.033 389.600 C 375.409 383.770,375.844 378.910,375.999 378.800 C 376.154 378.690,376.611 373.515,377.014 367.300 C 377.417 361.085,377.865 356.000,378.010 356.000 C 378.155 356.000,378.604 351.005,379.008 344.900 C 379.413 338.795,379.861 333.710,380.006 333.600 C 380.150 333.490,380.599 328.540,381.003 322.600 C 381.407 316.660,381.853 311.710,381.994 311.600 C 382.134 311.490,382.582 306.450,382.988 300.400 C 383.395 294.350,383.848 289.310,383.996 289.200 C 384.143 289.090,384.593 284.050,384.994 278.000 C 385.396 271.950,385.848 266.910,385.999 266.800 C 386.149 266.690,386.595 261.650,386.989 255.600 C 387.383 249.550,387.838 244.420,388.001 244.200 C 388.164 243.980,388.624 238.850,389.022 232.800 C 389.421 226.750,389.864 221.710,390.007 221.600 C 390.151 221.490,390.599 216.540,391.003 210.600 C 391.407 204.660,391.853 199.710,391.994 199.600 C 392.134 199.490,392.582 194.450,392.988 188.400 C 393.395 182.350,393.849 177.310,393.998 177.200 C 394.147 177.090,394.598 172.050,395.000 166.000 C 395.402 159.950,395.850 154.910,395.996 154.800 C 396.142 154.690,396.579 149.740,396.966 143.800 C 397.354 137.860,397.823 132.640,398.010 132.200 C 398.197 131.760,398.627 127.151,398.965 121.957 C 399.304 116.764,399.695 112.219,399.833 111.857 C 400.067 111.248,385.431 111.200,200.000 111.200 C 17.537 111.200,-0.064 111.256,0.158 111.834 M363.034 145.500 C 362.905 146.325,362.527 150.420,362.195 154.600 C 361.864 158.780,361.327 164.900,361.003 168.200 C 360.679 171.500,360.137 177.620,359.798 181.800 C 359.460 185.980,359.096 189.940,358.990 190.600 C 358.883 191.260,358.436 196.300,357.996 201.800 C 357.556 207.300,357.112 212.250,357.011 212.800 C 356.909 213.350,356.544 217.400,356.200 221.800 C 355.855 226.200,355.315 232.320,354.999 235.400 C 354.683 238.480,354.232 243.520,353.997 246.600 C 353.761 249.680,353.311 254.720,352.997 257.800 C 352.682 260.880,352.235 265.920,352.002 269.000 C 351.770 272.080,351.404 276.220,351.189 278.200 C 350.973 280.180,350.433 286.210,349.988 291.600 C 349.543 296.990,349.091 301.940,348.984 302.600 C 348.877 303.260,348.431 308.300,347.992 313.800 C 347.553 319.300,347.112 324.250,347.010 324.800 C 346.909 325.350,346.544 329.400,346.200 333.800 C 345.855 338.200,345.315 344.320,344.999 347.400 C 344.683 350.480,344.232 355.520,343.997 358.600 C 343.761 361.680,343.313 366.720,342.999 369.800 C 342.686 372.880,342.238 377.830,342.002 380.800 C 341.766 383.770,341.313 388.900,340.994 392.200 C 340.675 395.500,340.223 400.630,339.990 403.600 C 339.757 406.570,339.310 411.520,338.996 414.600 C 338.682 417.680,338.232 422.720,337.997 425.800 C 337.761 428.880,337.311 433.920,336.997 437.000 C 336.682 440.080,336.235 445.120,336.002 448.200 C 335.770 451.280,335.401 455.420,335.182 457.400 C 334.963 459.380,334.429 465.230,333.996 470.400 C 332.785 484.847,332.026 492.135,331.698 492.454 C 331.534 492.614,328.340 493.576,324.600 494.591 C 317.868 496.419,313.032 497.762,308.000 499.200 C 303.938 500.361,298.682 501.814,292.800 503.401 C 289.830 504.202,286.590 505.102,285.600 505.400 C 284.610 505.698,281.370 506.598,278.400 507.400 C 275.430 508.202,272.190 509.102,271.200 509.400 C 270.210 509.698,266.970 510.598,264.000 511.400 C 261.030 512.202,257.790 513.102,256.800 513.400 C 255.810 513.698,252.570 514.598,249.600 515.400 C 246.630 516.202,243.390 517.102,242.400 517.400 C 241.410 517.698,238.260 518.579,235.400 519.359 C 228.096 521.349,210.620 526.175,205.544 527.603 C 203.202 528.261,200.907 528.800,200.444 528.800 L 199.600 528.800 199.600 503.443 C 199.600 476.120,199.711 477.605,197.667 477.598 C 197.300 477.596,196.520 477.344,195.932 477.038 C 195.345 476.732,193.365 476.161,191.532 475.770 C 189.700 475.379,188.110 474.932,188.000 474.777 C 187.890 474.622,186.376 474.201,184.636 473.843 C 182.895 473.484,181.275 473.042,181.036 472.860 C 180.796 472.678,179.160 472.212,177.400 471.826 C 175.640 471.439,173.660 470.894,173.000 470.616 C 172.340 470.337,170.630 469.874,169.200 469.587 C 167.770 469.300,166.510 468.947,166.400 468.803 C 166.290 468.658,164.670 468.218,162.800 467.823 C 160.930 467.429,159.209 466.953,158.976 466.767 C 158.743 466.581,157.123 466.119,155.376 465.741 C 153.629 465.363,152.110 464.936,152.000 464.794 C 151.890 464.651,150.630 464.300,149.200 464.013 C 147.770 463.726,146.060 463.263,145.400 462.984 C 144.740 462.706,142.760 462.161,141.000 461.774 C 139.240 461.388,137.604 460.922,137.364 460.740 C 137.125 460.558,135.505 460.116,133.764 459.757 C 132.024 459.399,130.510 458.978,130.400 458.823 C 130.290 458.668,128.670 458.218,126.800 457.823 C 124.930 457.429,123.220 456.969,123.000 456.802 C 122.780 456.634,121.160 456.168,119.400 455.765 C 117.640 455.362,116.110 454.921,116.000 454.784 C 115.890 454.647,114.630 454.300,113.200 454.013 C 111.770 453.726,110.060 453.265,109.400 452.989 C 108.740 452.712,106.850 452.184,105.200 451.815 C 103.550 451.446,101.660 450.905,101.000 450.613 C 100.340 450.322,99.058 449.962,98.151 449.815 C 96.301 449.514,96.000 448.649,96.000 443.624 C 96.000 442.379,95.844 441.189,95.653 440.980 C 95.462 440.771,95.000 435.920,94.627 430.200 C 94.253 424.480,93.797 419.440,93.612 419.000 C 93.427 418.560,92.977 413.520,92.611 407.800 C 92.245 402.080,91.791 397.040,91.603 396.600 C 91.414 396.160,90.951 390.940,90.573 385.000 C 90.195 379.060,89.732 374.029,89.543 373.820 C 89.354 373.611,89.200 372.666,89.200 371.720 L 89.200 370.000 115.000 370.000 C 139.307 370.000,140.800 370.041,140.794 370.700 C 140.769 373.317,142.121 390.755,142.398 391.400 C 142.587 391.840,143.000 396.037,143.317 400.726 C 143.964 410.319,143.760 409.802,147.229 410.636 C 148.643 410.976,150.160 411.412,150.600 411.606 C 151.040 411.799,152.750 412.256,154.400 412.621 C 156.050 412.987,157.940 413.517,158.600 413.800 C 159.260 414.083,161.105 414.543,162.700 414.822 C 164.295 415.100,165.600 415.459,165.600 415.619 C 165.600 415.779,166.815 416.131,168.300 416.403 C 169.785 416.674,171.540 417.127,172.200 417.409 C 172.860 417.692,174.840 418.239,176.600 418.626 C 178.360 419.012,179.980 419.459,180.200 419.617 C 180.420 419.776,182.130 420.229,184.000 420.623 C 185.870 421.018,187.490 421.456,187.600 421.597 C 187.710 421.739,189.780 422.276,192.200 422.791 C 194.620 423.307,196.780 423.855,197.000 424.009 C 197.220 424.163,197.895 424.408,198.500 424.552 L 199.600 424.815 199.600 385.208 L 199.600 345.600 144.548 345.600 L 89.497 345.600 89.729 343.700 C 89.856 342.655,90.163 338.650,90.409 334.800 C 90.656 330.950,91.011 327.440,91.197 327.000 C 91.384 326.560,91.836 321.520,92.202 315.800 C 92.568 310.080,93.018 305.040,93.201 304.600 C 93.384 304.160,93.831 299.210,94.196 293.600 C 94.560 287.990,95.007 283.040,95.190 282.600 C 95.373 282.160,95.823 277.030,96.191 271.200 C 96.559 265.370,97.014 260.240,97.202 259.800 C 97.390 259.360,97.840 254.320,98.202 248.600 C 98.564 242.880,99.016 237.840,99.206 237.400 C 99.396 236.960,99.844 231.920,100.202 226.200 C 100.560 220.480,101.009 215.440,101.198 215.000 C 101.388 214.560,101.835 209.700,102.193 204.200 C 102.551 198.700,103.002 193.840,103.195 193.400 C 103.388 192.960,103.838 188.460,104.196 183.400 C 104.553 178.340,104.993 173.923,105.174 173.584 C 105.354 173.246,105.634 170.906,105.795 168.384 C 105.956 165.863,106.271 163.575,106.493 163.300 C 106.813 162.905,116.651 162.800,153.249 162.800 L 199.600 162.800 199.600 153.400 L 199.600 144.000 281.435 144.000 L 363.270 144.000 363.034 145.500 M308.142 180.933 C 308.331 184.050,308.601 186.727,308.742 186.882 C 308.884 187.036,308.820 184.575,308.600 181.412 C 308.380 178.250,308.110 175.573,308.000 175.464 C 307.890 175.355,307.954 177.816,308.142 180.933 M310.102 201.000 C 310.089 202.320,310.214 204.930,310.378 206.800 C 310.643 209.821,310.679 209.932,310.698 207.800 C 310.711 206.480,310.586 203.870,310.422 202.000 C 310.157 198.979,310.121 198.868,310.102 201.000 M172.612 216.300 C 167.307 216.367,163.259 216.581,163.032 216.808 C 162.816 217.024,160.283 217.200,157.378 217.200 L 152.116 217.200 151.634 224.700 C 151.369 228.825,150.997 232.560,150.807 233.000 C 150.618 233.440,150.164 238.300,149.798 243.800 C 149.432 249.300,148.980 254.160,148.795 254.600 C 148.609 255.040,148.160 259.990,147.796 265.600 C 147.431 271.210,146.983 276.160,146.800 276.600 C 146.616 277.040,146.267 280.370,146.025 284.000 C 145.782 287.630,145.476 291.545,145.346 292.700 L 145.108 294.800 172.354 294.800 L 199.600 294.800 199.600 255.633 C 199.600 224.674,199.705 216.424,200.100 216.265 C 200.596 216.065,190.254 216.078,172.612 216.300 M219.200 216.673 C 224.992 217.089,233.530 217.372,233.280 217.140 C 233.126 216.997,229.400 216.798,225.000 216.697 C 220.600 216.597,217.990 216.586,219.200 216.673 M249.919 218.455 C 250.251 218.756,260.506 219.173,260.206 218.873 C 260.093 218.760,257.669 218.563,254.820 218.434 C 251.970 218.305,249.765 218.315,249.919 218.455 M261.000 226.188 C 261.220 229.350,261.490 232.027,261.600 232.136 C 261.898 232.432,261.158 221.046,260.858 220.718 C 260.716 220.564,260.780 223.025,261.000 226.188 M312.200 226.802 C 312.420 229.847,312.690 232.428,312.800 232.537 C 312.910 232.645,312.820 230.242,312.600 227.196 C 312.380 224.151,312.110 221.570,312.000 221.462 C 311.890 221.353,311.980 223.756,312.200 226.802 M263.000 248.404 C 263.220 251.449,263.490 254.029,263.600 254.138 C 263.710 254.246,263.620 251.842,263.400 248.796 C 263.180 245.751,262.910 243.171,262.800 243.062 C 262.690 242.954,262.780 245.358,263.000 248.404 M314.200 248.988 C 314.420 252.150,314.690 254.827,314.800 254.936 C 315.098 255.232,314.358 243.846,314.058 243.518 C 313.916 243.364,313.980 245.825,314.200 248.988 M264.732 267.840 L 264.863 270.806 290.532 270.703 L 316.200 270.600 316.323 268.443 C 316.390 267.256,316.300 266.140,316.123 265.961 C 315.945 265.783,315.861 266.709,315.936 268.018 L 316.071 270.400 290.636 270.400 L 265.200 270.400 265.200 267.824 C 265.200 266.407,265.065 265.163,264.900 265.060 C 264.735 264.958,264.659 266.208,264.732 267.840 " stroke="none" fill="#e4a227" fill-rule="evenodd"></path><path id="path1" d="M199.600 153.400 L 199.600 162.800 253.168 162.800 L 306.736 162.800 306.947 163.900 C 307.063 164.505,307.280 167.243,307.428 169.984 C 307.577 172.726,307.844 175.246,308.022 175.584 C 308.200 175.923,308.642 181.060,309.005 187.000 C 309.367 192.940,309.816 198.160,310.002 198.600 C 310.188 199.040,310.635 204.170,310.996 210.000 C 311.356 215.830,311.807 220.960,311.998 221.400 C 312.189 221.840,312.640 226.790,313.000 232.400 C 313.360 238.010,313.810 242.960,314.001 243.400 C 314.191 243.840,314.640 248.880,314.998 254.600 C 315.356 260.320,315.829 265.369,316.050 265.821 C 316.270 266.272,316.394 267.532,316.325 268.621 L 316.200 270.600 290.569 270.703 L 264.937 270.806 264.421 262.703 C 264.138 258.246,263.772 254.420,263.609 254.200 C 263.446 253.980,263.004 249.120,262.627 243.400 C 262.251 237.680,261.833 232.730,261.698 232.400 C 261.563 232.070,261.245 229.055,260.993 225.700 C 260.443 218.402,261.015 219.084,255.292 218.901 C 252.711 218.819,250.240 218.594,249.800 218.401 C 249.360 218.208,241.755 217.737,232.900 217.354 C 224.045 216.972,216.800 216.510,216.800 216.329 C 216.800 215.954,201.199 215.872,200.233 216.243 C 199.662 216.462,199.600 220.306,199.600 255.643 L 199.600 294.800 257.800 294.800 L 316.000 294.800 316.001 296.100 C 316.002 299.144,315.097 310.267,314.789 311.000 C 314.604 311.440,314.249 315.130,314.000 319.200 C 313.751 323.270,313.393 326.960,313.204 327.400 C 313.015 327.840,312.546 333.060,312.163 339.000 C 311.779 344.940,311.345 349.890,311.197 350.000 C 311.049 350.110,310.615 355.060,310.232 361.000 C 309.849 366.940,309.383 372.160,309.195 372.600 C 309.008 373.040,308.555 378.080,308.189 383.800 C 307.823 389.520,307.374 394.560,307.191 395.000 C 307.007 395.440,306.560 400.390,306.196 406.000 C 305.831 411.610,305.383 416.560,305.198 417.000 C 305.014 417.440,304.554 422.570,304.177 428.400 C 303.800 434.230,303.356 439.180,303.192 439.400 C 303.028 439.620,302.767 441.878,302.612 444.418 C 302.288 449.748,302.584 449.410,297.200 450.598 C 295.550 450.962,293.894 451.422,293.521 451.620 C 293.147 451.819,291.527 452.276,289.921 452.637 C 288.314 452.998,286.820 453.422,286.600 453.579 C 286.380 453.737,284.670 454.196,282.800 454.600 C 280.930 455.004,279.215 455.473,278.989 455.642 C 278.763 455.811,277.233 456.242,275.589 456.599 C 273.945 456.956,272.240 457.415,271.800 457.621 C 271.360 457.826,269.771 458.272,268.269 458.613 C 266.767 458.953,265.237 459.393,264.869 459.591 C 264.501 459.788,262.760 460.260,261.000 460.639 C 259.240 461.018,257.604 461.478,257.364 461.660 C 257.125 461.842,255.505 462.284,253.764 462.643 C 252.024 463.001,250.510 463.418,250.400 463.569 C 250.290 463.720,248.670 464.166,246.800 464.560 C 244.930 464.954,243.220 465.420,243.000 465.595 C 242.780 465.770,241.160 466.226,239.400 466.608 C 237.640 466.990,236.020 467.443,235.800 467.613 C 235.580 467.784,233.870 468.246,232.000 468.640 C 230.130 469.034,228.510 469.473,228.400 469.615 C 228.290 469.757,226.760 470.201,225.000 470.601 C 223.240 471.001,221.620 471.453,221.400 471.606 C 221.180 471.758,219.515 472.213,217.700 472.617 C 215.885 473.021,214.400 473.458,214.400 473.590 C 214.400 473.721,214.085 473.845,213.700 473.864 C 213.315 473.884,211.200 474.394,209.000 474.998 C 206.800 475.602,203.965 476.369,202.700 476.703 C 201.435 477.037,200.400 477.476,200.400 477.679 C 200.400 477.882,200.205 477.927,199.968 477.780 C 199.248 477.335,195.206 476.487,195.415 476.824 C 195.522 476.997,196.192 477.256,196.905 477.399 C 199.893 478.000,199.600 475.173,199.600 503.427 L 199.600 528.800 200.444 528.800 C 200.907 528.800,203.202 528.261,205.544 527.603 C 210.620 526.175,228.096 521.349,235.400 519.359 C 238.260 518.579,241.410 517.698,242.400 517.400 C 243.390 517.102,246.630 516.202,249.600 515.400 C 252.570 514.598,255.810 513.698,256.800 513.400 C 257.790 513.102,261.030 512.202,264.000 511.400 C 266.970 510.598,270.210 509.698,271.200 509.400 C 272.190 509.102,275.430 508.202,278.400 507.400 C 281.370 506.598,284.610 505.698,285.600 505.400 C 286.590 505.102,289.830 504.202,292.800 503.401 C 298.682 501.814,303.938 500.361,308.000 499.200 C 313.032 497.762,317.868 496.419,324.600 494.591 C 328.340 493.576,331.534 492.614,331.698 492.454 C 332.026 492.135,332.785 484.847,333.996 470.400 C 334.429 465.230,334.963 459.380,335.182 457.400 C 335.401 455.420,335.770 451.280,336.002 448.200 C 336.235 445.120,336.682 440.080,336.997 437.000 C 337.311 433.920,337.761 428.880,337.997 425.800 C 338.232 422.720,338.682 417.680,338.996 414.600 C 339.310 411.520,339.757 406.570,339.990 403.600 C 340.223 400.630,340.675 395.500,340.994 392.200 C 341.313 388.900,341.766 383.770,342.002 380.800 C 342.238 377.830,342.686 372.880,342.999 369.800 C 343.313 366.720,343.761 361.680,343.997 358.600 C 344.232 355.520,344.683 350.480,344.999 347.400 C 345.315 344.320,345.855 338.200,346.200 333.800 C 346.544 329.400,346.909 325.350,347.010 324.800 C 347.112 324.250,347.553 319.300,347.992 313.800 C 348.431 308.300,348.877 303.260,348.984 302.600 C 349.091 301.940,349.543 296.990,349.988 291.600 C 350.433 286.210,350.973 280.180,351.189 278.200 C 351.404 276.220,351.770 272.080,352.002 269.000 C 352.235 265.920,352.682 260.880,352.997 257.800 C 353.311 254.720,353.761 249.680,353.997 246.600 C 354.232 243.520,354.683 238.480,354.999 235.400 C 355.315 232.320,355.855 226.200,356.200 221.800 C 356.544 217.400,356.909 213.350,357.011 212.800 C 357.112 212.250,357.556 207.300,357.996 201.800 C 358.436 196.300,358.883 191.260,358.990 190.600 C 359.096 189.940,359.460 185.980,359.798 181.800 C 360.137 177.620,360.679 171.500,361.003 168.200 C 361.327 164.900,361.864 158.780,362.195 154.600 C 362.527 150.420,362.905 146.325,363.034 145.500 L 363.270 144.000 281.435 144.000 L 199.600 144.000 199.600 153.400 M199.600 385.243 C 199.600 420.316,199.531 424.859,199.000 424.655 C 198.670 424.529,198.400 424.599,198.400 424.813 C 198.400 425.277,199.876 425.337,200.067 424.881 C 200.140 424.706,201.710 424.242,203.556 423.850 C 205.402 423.458,207.202 422.982,207.556 422.792 C 207.910 422.603,209.550 422.129,211.200 421.739 C 212.850 421.350,214.290 421.009,214.400 420.982 C 214.510 420.955,215.050 420.746,215.600 420.517 C 216.150 420.288,217.410 419.967,218.400 419.804 C 219.390 419.641,220.377 419.402,220.593 419.273 C 220.809 419.144,221.259 418.992,221.593 418.935 C 222.529 418.777,227.326 417.549,228.000 417.295 C 228.330 417.171,228.690 417.051,228.800 417.028 C 228.910 417.006,229.180 416.877,229.400 416.741 C 229.620 416.606,231.105 416.265,232.700 415.983 C 234.295 415.702,235.600 415.341,235.600 415.181 C 235.600 415.021,236.815 414.669,238.300 414.397 C 239.785 414.126,241.540 413.672,242.200 413.389 C 242.860 413.106,244.750 412.577,246.400 412.213 C 248.050 411.850,249.681 411.403,250.024 411.220 C 250.367 411.038,251.647 410.681,252.868 410.427 L 255.088 409.966 255.323 407.283 C 255.453 405.807,255.780 401.360,256.050 397.400 C 256.321 393.440,256.659 390.110,256.801 390.000 C 256.944 389.890,257.374 384.940,257.758 379.000 C 258.141 373.060,258.608 367.840,258.794 367.400 C 259.105 366.668,260.421 349.932,260.406 346.900 L 260.400 345.600 230.000 345.600 L 199.600 345.600 199.600 385.243 M89.314 371.800 C 89.317 372.900,89.395 373.303,89.487 372.695 C 89.579 372.086,89.577 371.186,89.482 370.695 C 89.387 370.203,89.311 370.700,89.314 371.800 M140.688 375.000 C 140.801 377.860,141.011 380.330,141.154 380.488 C 141.298 380.646,141.281 378.756,141.116 376.288 C 140.676 369.701,140.453 369.031,140.688 375.000 M90.538 384.800 C 90.671 385.790,90.900 388.810,91.047 391.512 C 91.194 394.213,91.424 396.491,91.558 396.574 C 91.913 396.793,90.968 383.631,90.604 383.289 C 90.436 383.130,90.406 383.810,90.538 384.800 M142.600 396.802 C 142.820 399.847,143.090 402.428,143.200 402.537 C 143.310 402.645,143.220 400.242,143.000 397.196 C 142.780 394.151,142.510 391.570,142.400 391.462 C 142.290 391.353,142.380 393.756,142.600 396.802 M92.453 403.200 C 92.362 405.395,93.301 418.567,93.572 418.887 C 93.809 419.168,93.544 414.399,92.856 406.000 C 92.666 403.690,92.485 402.430,92.453 403.200 M147.076 410.833 C 147.254 411.009,148.179 411.328,149.131 411.542 C 151.386 412.046,150.903 411.565,148.556 410.970 C 147.564 410.718,146.897 410.656,147.076 410.833 M154.600 413.051 C 156.747 413.636,158.461 413.902,158.148 413.601 C 157.957 413.417,156.900 413.168,155.800 413.049 C 154.700 412.930,154.160 412.931,154.600 413.051 M161.452 414.799 C 161.643 414.983,162.700 415.232,163.800 415.351 C 165.820 415.569,165.485 415.408,162.652 414.797 C 161.800 414.613,161.260 414.614,161.452 414.799 M169.052 416.776 C 169.540 417.215,172.979 418.018,172.550 417.593 C 172.358 417.402,171.413 417.070,170.452 416.855 C 169.490 416.639,168.860 416.604,169.052 416.776 M176.676 418.833 C 176.854 419.009,177.779 419.328,178.731 419.542 C 180.986 420.046,180.503 419.565,178.156 418.970 C 177.164 418.718,176.497 418.656,176.676 418.833 M184.800 421.200 C 185.350 421.376,186.250 421.517,186.800 421.513 C 187.698 421.506,187.678 421.474,186.600 421.200 C 184.908 420.769,183.456 420.769,184.800 421.200 M191.058 422.799 C 191.459 423.178,197.356 424.424,196.986 424.052 C 196.849 423.913,195.382 423.502,193.726 423.138 C 192.071 422.774,190.870 422.622,191.058 422.799 M94.462 425.800 C 94.344 427.750,95.285 440.574,95.570 440.896 C 95.789 441.143,95.230 431.835,94.688 426.200 C 94.569 424.955,94.518 424.866,94.462 425.800 M96.324 448.200 C 96.471 449.457,99.040 450.694,99.840 449.893 C 99.943 449.790,99.301 449.590,98.413 449.449 C 97.042 449.229,96.800 449.045,96.800 448.219 C 96.800 447.684,96.658 447.159,96.484 447.052 C 96.310 446.944,96.238 447.461,96.324 448.200 M101.391 450.786 C 101.495 450.954,102.170 451.201,102.890 451.335 C 103.611 451.468,104.897 451.749,105.749 451.958 C 106.601 452.167,107.141 452.191,106.949 452.012 C 106.479 451.573,101.151 450.398,101.391 450.786 M109.037 452.859 C 109.242 453.191,113.586 454.148,113.821 453.913 C 113.907 453.826,112.826 453.489,111.419 453.164 C 110.011 452.838,108.939 452.701,109.037 452.859 M116.600 455.078 C 117.040 455.180,118.371 455.508,119.557 455.808 C 120.743 456.108,121.553 456.209,121.357 456.031 C 120.906 455.624,117.483 454.785,116.523 454.846 C 115.907 454.886,115.919 454.920,116.600 455.078 M123.061 456.791 C 123.528 457.218,128.937 458.377,128.521 457.961 C 128.337 457.777,126.957 457.369,125.454 457.054 C 123.951 456.739,122.874 456.621,123.061 456.791 M130.400 458.813 C 130.400 459.200,135.560 460.174,135.885 459.849 C 136.021 459.712,135.783 459.600,135.354 459.600 C 134.925 459.600,133.635 459.356,132.487 459.059 C 131.339 458.761,130.400 458.650,130.400 458.813 M137.391 460.786 C 137.495 460.954,138.170 461.201,138.890 461.335 C 139.611 461.468,140.897 461.749,141.749 461.958 C 142.601 462.167,143.141 462.191,142.949 462.012 C 142.479 461.573,137.151 460.398,137.391 460.786 M145.037 462.859 C 145.242 463.191,149.586 464.148,149.821 463.913 C 149.907 463.826,148.826 463.489,147.419 463.164 C 146.011 462.838,144.939 462.701,145.037 462.859 M154.000 465.417 C 156.863 466.132,157.998 466.095,155.400 465.372 C 154.300 465.066,153.040 464.827,152.600 464.842 C 152.160 464.856,152.790 465.115,154.000 465.417 M159.061 466.791 C 159.528 467.218,164.937 468.377,164.521 467.961 C 164.337 467.777,162.957 467.369,161.454 467.054 C 159.951 466.739,158.874 466.621,159.061 466.791 M166.400 468.762 C 166.400 468.915,167.446 469.256,168.724 469.520 C 171.261 470.044,172.931 470.108,171.000 469.607 C 167.674 468.744,166.400 468.510,166.400 468.762 M173.431 470.850 C 173.550 471.043,173.957 471.200,174.336 471.200 C 174.716 471.200,175.978 471.447,177.142 471.749 C 178.306 472.051,179.107 472.147,178.922 471.962 C 178.453 471.493,173.167 470.422,173.431 470.850 M181.078 472.838 C 181.262 473.022,182.635 473.429,184.129 473.742 C 187.659 474.482,187.195 474.019,183.549 473.162 C 182.005 472.799,180.893 472.653,181.078 472.838 M190.000 475.417 C 191.210 475.719,192.560 475.958,193.000 475.949 C 193.440 475.940,192.810 475.685,191.600 475.383 C 190.390 475.081,189.040 474.842,188.600 474.851 C 188.160 474.860,188.790 475.115,190.000 475.417 " stroke="none" fill="#f0bf26" fill-rule="evenodd"></path><path id="path2" d="M106.570 163.506 C 106.320 163.677,105.830 167.902,105.400 173.600 C 104.993 178.990,104.546 183.490,104.408 183.600 C 104.159 183.797,102.773 200.173,102.791 202.700 C 102.796 203.415,102.655 204.000,102.479 204.000 C 102.302 204.000,101.837 208.905,101.445 214.900 C 101.053 220.895,100.580 226.160,100.394 226.600 C 100.207 227.040,99.760 231.990,99.400 237.600 C 99.040 243.210,98.595 248.160,98.411 248.600 C 98.227 249.040,97.777 254.080,97.411 259.800 C 97.045 265.520,96.591 270.560,96.403 271.000 C 96.214 271.440,95.746 276.660,95.363 282.600 C 94.979 288.540,94.544 293.490,94.395 293.600 C 94.246 293.710,93.796 298.750,93.394 304.800 C 92.993 310.850,92.546 315.890,92.401 316.000 C 92.256 316.110,91.807 321.060,91.403 327.000 C 90.999 332.940,90.543 337.890,90.391 338.000 C 90.239 338.110,90.019 339.775,89.902 341.700 L 89.689 345.200 144.444 345.200 L 199.200 345.200 199.248 330.100 C 199.274 321.795,199.334 310.545,199.382 305.100 L 199.468 295.200 172.126 295.200 L 144.784 295.200 145.046 291.300 C 145.190 289.155,145.441 287.220,145.604 287.000 C 145.767 286.780,146.205 282.010,146.577 276.400 C 146.950 270.790,147.410 265.840,147.600 265.400 C 147.790 264.960,148.252 260.010,148.628 254.400 C 149.003 248.790,149.435 244.110,149.588 244.000 C 149.741 243.890,150.200 238.895,150.608 232.900 C 151.017 226.905,151.497 222.000,151.675 222.000 C 151.854 222.000,152.000 220.858,152.000 219.463 L 152.000 216.926 159.900 216.664 C 190.480 215.649,238.889 216.206,242.200 217.611 C 242.640 217.798,246.825 218.106,251.501 218.296 C 257.145 218.525,260.162 218.802,260.480 219.120 C 260.778 219.418,261.201 222.887,261.598 228.300 C 261.950 233.085,262.351 237.270,262.490 237.600 C 262.629 237.930,263.051 242.880,263.427 248.600 C 263.804 254.320,264.249 259.180,264.417 259.400 C 264.585 259.620,264.853 262.185,265.012 265.100 L 265.303 270.400 290.651 270.400 L 316.000 270.400 316.000 268.200 C 316.000 266.990,315.853 266.000,315.673 266.000 C 315.493 266.000,315.030 261.095,314.643 255.100 C 314.256 249.105,313.786 243.840,313.598 243.400 C 313.411 242.960,312.960 238.010,312.596 232.400 C 312.231 226.790,311.780 221.840,311.594 221.400 C 311.407 220.960,310.956 215.830,310.591 210.000 C 310.227 204.170,309.776 199.040,309.589 198.600 C 309.402 198.160,308.955 192.940,308.596 187.000 C 308.237 181.060,307.797 175.920,307.617 175.577 C 307.437 175.234,307.166 172.624,307.014 169.777 C 306.863 166.930,306.651 164.285,306.543 163.900 C 306.335 163.162,107.646 162.771,106.570 163.506 M294.154 228.481 C 295.059 228.745,295.890 229.070,296.000 229.203 C 296.110 229.336,296.772 229.677,297.471 229.959 C 298.170 230.242,299.053 230.817,299.433 231.237 C 299.813 231.656,300.303 232.000,300.522 232.000 C 300.932 232.000,303.600 234.586,303.600 234.984 C 303.600 235.106,304.125 235.932,304.767 236.817 C 305.408 237.703,306.162 239.322,306.442 240.414 C 306.722 241.506,307.097 242.400,307.276 242.400 C 307.710 242.400,307.694 250.935,307.259 251.420 C 307.071 251.629,306.683 252.674,306.395 253.743 C 305.386 257.493,300.016 263.288,296.502 264.420 C 295.676 264.686,294.747 265.106,294.439 265.352 C 293.522 266.084,284.753 266.195,283.146 265.495 C 282.406 265.173,280.990 264.573,280.000 264.163 C 279.010 263.753,277.965 263.099,277.677 262.709 C 277.390 262.319,276.948 262.000,276.696 262.000 C 276.051 262.000,273.600 259.553,273.600 258.909 C 273.600 258.615,273.344 258.277,273.032 258.157 C 272.449 257.933,270.846 254.862,270.048 252.440 C 269.470 250.685,269.468 243.322,270.046 241.560 C 270.592 239.892,272.109 236.705,272.714 235.954 C 274.653 233.546,276.174 232.000,276.604 232.000 C 276.885 232.000,277.207 231.759,277.320 231.465 C 277.530 230.916,281.202 228.973,283.123 228.394 C 284.802 227.887,292.324 227.946,294.154 228.481 " stroke="none" fill="#3f7bad" fill-rule="evenodd"></path><path id="path3" d="M302.400 29.957 C 302.400 30.153,301.995 30.418,301.500 30.546 C 299.155 31.154,298.138 34.812,299.794 36.679 C 300.340 37.296,300.996 38.045,301.251 38.345 C 302.663 40.003,306.914 38.328,307.455 35.900 C 307.590 35.295,307.858 34.800,308.050 34.800 C 308.598 34.800,308.461 34.004,307.800 33.343 C 307.470 33.013,307.200 32.418,307.200 32.020 C 307.200 31.594,306.707 31.093,306.000 30.800 C 305.340 30.527,304.800 30.145,304.800 29.951 C 304.800 29.758,304.260 29.600,303.600 29.600 C 302.940 29.600,302.400 29.760,302.400 29.957 M217.800 31.981 C 216.920 32.423,215.510 32.904,214.666 33.049 C 213.822 33.194,213.038 33.558,212.923 33.857 C 212.808 34.155,212.468 34.400,212.167 34.400 C 211.867 34.400,211.341 34.940,211.000 35.600 C 210.659 36.260,210.110 36.800,209.780 36.800 C 209.450 36.800,208.993 37.291,208.765 37.892 C 208.537 38.492,208.136 39.116,207.875 39.277 C 206.909 39.874,207.257 47.666,208.300 48.785 C 208.795 49.316,209.200 49.991,209.200 50.285 C 209.200 50.579,209.650 50.991,210.200 51.200 C 210.750 51.409,211.200 51.855,211.200 52.190 C 211.200 52.526,211.425 52.800,211.700 52.800 C 211.975 52.801,212.696 53.228,213.303 53.749 C 213.909 54.271,215.259 54.934,216.303 55.223 C 217.346 55.513,218.380 55.960,218.600 56.218 C 218.820 56.477,219.855 56.916,220.900 57.196 C 221.945 57.475,222.800 57.861,222.800 58.052 C 222.800 58.243,223.130 58.400,223.534 58.400 C 225.181 58.400,226.401 60.576,226.391 63.497 L 226.383 66.200 224.691 67.400 C 222.813 68.733,213.695 69.285,213.297 68.090 C 213.207 67.821,212.810 67.600,212.416 67.600 C 212.021 67.600,211.056 67.332,210.271 67.004 C 208.169 66.125,207.746 66.477,207.480 69.326 C 207.352 70.692,207.131 72.115,206.988 72.488 C 206.795 72.990,206.997 73.234,207.764 73.427 C 208.334 73.570,208.800 73.818,208.800 73.978 C 208.800 74.449,214.140 75.600,216.324 75.600 C 217.540 75.600,218.425 75.797,218.567 76.100 C 218.753 76.500,218.847 76.500,219.033 76.100 C 219.166 75.816,219.994 75.600,220.949 75.600 C 222.759 75.600,227.238 74.561,227.587 74.060 C 227.704 73.892,228.430 73.505,229.200 73.200 C 230.400 72.725,232.292 71.058,233.819 69.129 C 235.336 67.213,236.358 59.716,235.200 59.000 C 234.980 58.864,234.800 58.398,234.800 57.964 C 234.800 57.530,234.530 57.071,234.200 56.945 C 233.870 56.818,233.600 56.509,233.600 56.257 C 233.599 55.683,230.658 52.800,230.073 52.800 C 229.835 52.800,229.496 52.567,229.320 52.283 C 229.144 51.998,228.211 51.511,227.247 51.201 C 226.283 50.891,225.293 50.443,225.047 50.206 C 224.801 49.970,223.811 49.520,222.847 49.206 C 221.883 48.893,220.861 48.404,220.576 48.119 C 220.290 47.833,219.745 47.600,219.364 47.600 C 217.928 47.600,216.399 45.231,216.413 43.028 C 216.442 38.342,220.380 37.402,231.282 39.479 C 232.569 39.725,232.953 38.759,232.982 35.201 L 233.000 33.001 231.400 32.619 C 230.520 32.408,229.677 32.056,229.526 31.837 C 228.943 30.987,219.550 31.103,217.800 31.981 M361.756 36.835 C 357.616 37.528,357.600 37.545,357.600 41.190 L 357.600 44.400 355.383 44.400 L 353.166 44.400 353.283 47.500 L 353.400 50.600 355.500 50.721 L 357.600 50.842 357.600 58.621 C 357.600 63.540,357.747 66.400,358.000 66.400 C 358.220 66.400,358.400 67.019,358.400 67.776 C 358.400 68.533,358.580 69.264,358.800 69.400 C 359.020 69.536,359.200 70.270,359.200 71.030 C 359.200 72.238,359.390 72.501,360.700 73.106 C 361.525 73.488,362.480 74.137,362.822 74.548 C 363.560 75.433,367.797 75.867,371.361 75.422 L 373.600 75.142 373.600 71.971 L 373.600 68.800 371.500 68.795 C 366.799 68.782,366.684 68.548,366.482 58.500 L 366.326 50.800 369.963 50.800 L 373.600 50.800 373.600 47.600 L 373.600 44.400 370.000 44.400 L 366.400 44.400 366.400 40.400 L 366.400 36.400 365.100 36.447 C 364.385 36.472,362.880 36.647,361.756 36.835 M257.800 43.490 C 256.920 43.580,256.029 43.821,255.820 44.027 C 255.611 44.232,254.891 44.404,254.220 44.409 C 252.693 44.420,250.043 45.614,249.038 46.744 C 248.619 47.215,248.143 47.600,247.980 47.600 C 247.288 47.600,245.279 49.925,244.780 51.304 C 244.483 52.127,244.108 52.800,243.948 52.800 C 242.130 52.800,242.014 65.157,243.815 66.958 C 244.115 67.258,244.479 67.975,244.624 68.552 C 244.768 69.128,245.047 69.600,245.243 69.600 C 245.440 69.600,245.600 69.870,245.600 70.200 C 245.600 70.530,245.858 70.800,246.173 70.800 C 246.488 70.800,246.860 71.160,247.000 71.600 C 247.140 72.040,247.512 72.400,247.827 72.400 C 248.142 72.400,248.400 72.566,248.400 72.768 C 248.400 72.971,248.940 73.255,249.600 73.400 C 250.260 73.545,250.800 73.785,250.800 73.934 C 250.800 75.632,265.554 76.093,266.583 74.427 C 266.691 74.252,266.667 72.901,266.530 71.426 L 266.279 68.743 263.346 69.018 C 259.847 69.346,255.200 68.620,255.200 67.745 C 255.200 67.434,254.791 67.025,254.292 66.835 C 253.792 66.645,253.131 66.019,252.824 65.445 C 252.516 64.870,252.115 64.400,251.932 64.400 C 251.276 64.400,251.536 54.910,252.200 54.655 C 252.530 54.529,252.800 54.194,252.800 53.911 C 252.800 51.849,256.994 50.308,262.226 50.448 C 266.666 50.566,266.228 50.886,266.547 47.300 L 266.806 44.400 265.636 44.400 C 264.993 44.400,264.407 44.246,264.333 44.057 C 264.169 43.634,259.967 43.269,257.800 43.490 M289.057 43.800 C 288.727 44.130,288.210 44.400,287.908 44.400 C 287.021 44.400,285.207 45.363,285.203 45.836 C 285.196 46.778,282.979 49.171,282.100 49.185 C 281.265 49.199,281.200 49.027,281.200 46.800 L 281.200 44.400 277.400 44.400 L 273.600 44.400 273.600 59.800 L 273.600 75.200 278.200 75.200 L 282.800 75.200 282.800 66.250 C 282.800 56.829,282.978 54.800,283.807 54.800 C 284.085 54.800,284.423 54.362,284.558 53.827 C 284.692 53.291,285.206 52.727,285.701 52.573 C 286.195 52.418,286.703 52.133,286.829 51.938 C 286.955 51.743,288.260 51.471,289.729 51.334 L 292.400 51.084 292.400 47.142 L 292.400 43.200 291.029 43.200 C 290.274 43.200,289.387 43.470,289.057 43.800 M334.500 43.496 C 333.785 43.581,333.200 43.796,333.200 43.973 C 333.200 44.150,332.437 44.397,331.504 44.522 C 330.482 44.659,329.543 45.077,329.140 45.575 C 328.772 46.029,328.298 46.400,328.085 46.400 C 327.872 46.400,327.474 46.670,327.200 47.000 C 326.121 48.300,324.800 47.750,324.800 46.000 L 324.800 44.400 320.800 44.400 L 316.800 44.400 316.800 66.400 L 316.800 88.400 321.200 88.400 L 325.600 88.400 325.600 80.548 L 325.600 72.695 327.090 72.937 C 327.910 73.070,328.855 73.528,329.190 73.955 C 330.887 76.117,340.504 75.991,341.346 73.797 C 341.472 73.469,341.896 73.194,342.287 73.187 C 343.096 73.173,344.399 72.291,344.402 71.756 C 344.403 71.560,345.032 70.716,345.800 69.879 C 346.692 68.909,347.289 67.787,347.450 66.779 C 347.589 65.911,347.837 65.200,348.002 65.200 C 349.151 65.200,349.118 53.683,347.969 53.267 C 347.766 53.193,347.600 52.779,347.600 52.347 C 347.600 50.265,343.592 45.671,340.979 44.757 C 340.111 44.453,339.310 44.096,339.200 43.963 C 338.905 43.607,335.996 43.317,334.500 43.496 M298.800 59.800 L 298.800 75.200 303.200 75.200 L 307.600 75.200 307.600 59.800 L 307.600 44.400 303.200 44.400 L 298.800 44.400 298.800 59.800 M335.563 50.789 C 337.618 51.379,339.600 54.065,339.600 56.261 C 339.600 56.778,339.780 57.200,340.000 57.200 C 340.226 57.200,340.400 58.333,340.400 59.800 C 340.400 61.230,340.243 62.400,340.051 62.400 C 339.859 62.400,339.585 63.132,339.442 64.028 C 339.287 64.998,338.782 66.026,338.191 66.573 C 337.646 67.079,337.200 67.682,337.200 67.915 C 337.200 69.295,329.980 69.608,329.002 68.271 C 328.732 67.902,328.335 67.600,328.119 67.600 C 327.903 67.600,327.383 66.925,326.963 66.100 C 326.543 65.275,326.065 64.540,325.900 64.467 C 325.471 64.276,325.527 54.800,325.957 54.800 C 326.153 54.800,326.424 54.395,326.560 53.900 C 327.333 51.073,331.515 49.628,335.563 50.789 " stroke="none" fill="#000000" fill-rule="evenodd"></path><path id="path4" d="M199.600 320.200 L 199.600 345.600 230.000 345.600 L 260.400 345.600 260.406 346.900 C 260.421 349.932,259.105 366.668,258.794 367.400 C 258.608 367.840,258.141 373.060,257.758 379.000 C 257.374 384.940,256.944 389.890,256.801 390.000 C 256.659 390.110,256.321 393.440,256.050 397.400 C 255.780 401.360,255.453 405.807,255.323 407.283 L 255.088 409.966 252.868 410.427 C 251.647 410.681,250.367 411.038,250.024 411.220 C 249.681 411.403,248.050 411.850,246.400 412.213 C 244.750 412.577,242.860 413.106,242.200 413.389 C 241.540 413.672,239.785 414.126,238.300 414.397 C 236.815 414.669,235.600 415.021,235.600 415.181 C 235.600 415.341,234.295 415.702,232.700 415.983 C 231.105 416.265,229.620 416.606,229.400 416.741 C 229.180 416.877,228.910 417.006,228.800 417.028 C 228.690 417.051,228.330 417.171,228.000 417.295 C 227.326 417.549,222.529 418.777,221.593 418.935 C 221.259 418.992,220.809 419.144,220.593 419.273 C 220.377 419.402,219.390 419.641,218.400 419.804 C 217.410 419.967,216.150 420.288,215.600 420.517 C 215.050 420.746,214.510 420.955,214.400 420.982 C 214.290 421.009,212.850 421.350,211.200 421.739 C 209.550 422.129,207.910 422.603,207.556 422.792 C 207.202 422.982,205.402 423.458,203.556 423.850 C 201.710 424.242,200.140 424.706,200.067 424.881 C 199.886 425.313,198.400 425.289,198.400 424.855 C 198.400 424.665,196.825 424.198,194.900 423.817 C 192.975 423.436,191.204 422.963,190.964 422.767 C 190.725 422.570,189.105 422.116,187.364 421.757 C 185.624 421.399,184.110 420.973,184.000 420.811 C 183.890 420.649,182.540 420.289,181.000 420.010 C 179.460 419.732,177.660 419.271,177.000 418.987 C 176.340 418.702,174.360 418.164,172.600 417.791 C 170.840 417.418,169.220 416.981,169.000 416.821 C 168.780 416.660,167.160 416.218,165.400 415.839 C 163.640 415.460,161.910 414.995,161.556 414.806 C 161.202 414.617,159.402 414.144,157.556 413.753 C 155.710 413.363,154.110 412.917,154.000 412.761 C 153.890 412.606,152.630 412.258,151.200 411.987 C 149.770 411.717,148.060 411.266,147.400 410.986 C 146.740 410.705,145.729 410.371,145.153 410.243 C 143.988 409.985,143.613 408.709,143.604 404.980 C 143.602 403.869,143.446 402.789,143.258 402.580 C 143.069 402.371,142.596 397.430,142.205 391.600 C 141.814 385.770,141.339 380.829,141.147 380.620 C 140.956 380.411,140.799 379.421,140.798 378.420 C 140.796 377.419,140.680 375.115,140.538 373.300 L 140.281 370.000 114.907 370.000 L 89.533 370.000 89.816 374.500 C 89.972 376.975,90.212 379.180,90.350 379.400 C 90.487 379.620,90.636 380.610,90.680 381.600 C 90.917 386.975,92.172 401.829,92.402 402.000 C 92.550 402.110,92.985 407.060,93.368 413.000 C 93.751 418.940,94.218 424.160,94.407 424.600 C 94.596 425.040,95.047 430.080,95.409 435.800 C 95.771 441.520,96.232 446.513,96.434 446.895 C 96.635 447.277,96.800 447.949,96.800 448.390 C 96.800 449.015,97.151 449.247,98.400 449.446 C 99.280 449.587,100.000 449.829,100.000 449.983 C 100.000 450.137,101.485 450.582,103.300 450.970 C 105.115 451.359,106.780 451.810,107.000 451.974 C 107.220 452.138,108.840 452.599,110.600 452.999 C 112.360 453.399,113.890 453.845,114.000 453.990 C 114.110 454.135,115.779 454.580,117.709 454.980 C 119.639 455.379,121.302 455.841,121.404 456.007 C 121.506 456.172,122.807 456.530,124.295 456.802 C 125.783 457.073,127.540 457.530,128.200 457.816 C 129.576 458.412,134.321 459.600,135.326 459.600 C 135.697 459.600,136.000 459.749,136.000 459.932 C 136.000 460.114,137.485 460.582,139.300 460.970 C 141.115 461.359,142.780 461.810,143.000 461.974 C 143.220 462.138,144.840 462.599,146.600 462.999 C 148.360 463.399,149.890 463.845,150.000 463.990 C 150.110 464.135,151.779 464.580,153.709 464.980 C 155.639 465.379,157.302 465.841,157.404 466.007 C 157.506 466.172,158.807 466.530,160.295 466.802 C 161.783 467.073,163.540 467.530,164.200 467.815 C 164.860 468.101,166.885 468.658,168.700 469.053 C 170.515 469.448,172.000 469.893,172.000 470.040 C 172.000 470.188,173.215 470.531,174.700 470.803 C 176.185 471.074,177.940 471.528,178.600 471.811 C 179.260 472.094,181.150 472.629,182.800 473.000 C 184.450 473.371,186.340 473.906,187.000 474.190 C 187.660 474.473,189.415 474.940,190.900 475.226 C 192.385 475.512,193.600 475.861,193.600 476.000 C 193.600 476.139,194.815 476.490,196.300 476.779 C 197.785 477.069,199.315 477.468,199.700 477.667 C 200.111 477.879,200.400 477.880,200.400 477.669 C 200.400 477.472,201.435 477.037,202.700 476.703 C 203.965 476.369,206.800 475.602,209.000 474.998 C 211.200 474.394,213.315 473.884,213.700 473.864 C 214.085 473.845,214.400 473.721,214.400 473.590 C 214.400 473.458,215.885 473.021,217.700 472.617 C 219.515 472.213,221.180 471.758,221.400 471.606 C 221.620 471.453,223.240 471.001,225.000 470.601 C 226.760 470.201,228.290 469.757,228.400 469.615 C 228.510 469.473,230.130 469.034,232.000 468.640 C 233.870 468.246,235.580 467.784,235.800 467.613 C 236.020 467.443,237.640 466.990,239.400 466.608 C 241.160 466.226,242.780 465.770,243.000 465.595 C 243.220 465.420,244.930 464.954,246.800 464.560 C 248.670 464.166,250.290 463.720,250.400 463.569 C 250.510 463.418,252.024 463.001,253.764 462.643 C 255.505 462.284,257.125 461.842,257.364 461.660 C 257.604 461.478,259.240 461.018,261.000 460.639 C 262.760 460.260,264.501 459.788,264.869 459.591 C 265.237 459.393,266.767 458.953,268.269 458.613 C 269.771 458.272,271.360 457.826,271.800 457.621 C 272.240 457.415,273.945 456.956,275.589 456.599 C 277.233 456.242,278.763 455.811,278.989 455.642 C 279.215 455.473,280.930 455.004,282.800 454.600 C 284.670 454.196,286.380 453.737,286.600 453.579 C 286.820 453.422,288.314 452.998,289.921 452.637 C 291.527 452.276,293.147 451.819,293.521 451.620 C 293.894 451.422,295.550 450.962,297.200 450.598 C 302.584 449.410,302.288 449.748,302.612 444.418 C 302.767 441.878,303.028 439.620,303.192 439.400 C 303.356 439.180,303.800 434.230,304.177 428.400 C 304.554 422.570,305.014 417.440,305.198 417.000 C 305.383 416.560,305.831 411.610,306.196 406.000 C 306.560 400.390,307.007 395.440,307.191 395.000 C 307.374 394.560,307.823 389.520,308.189 383.800 C 308.555 378.080,309.008 373.040,309.195 372.600 C 309.383 372.160,309.849 366.940,310.232 361.000 C 310.615 355.060,311.049 350.110,311.197 350.000 C 311.345 349.890,311.779 344.940,312.163 339.000 C 312.546 333.060,313.015 327.840,313.204 327.400 C 313.393 326.960,313.751 323.270,314.000 319.200 C 314.249 315.130,314.604 311.440,314.789 311.000 C 315.097 310.267,316.002 299.144,316.001 296.100 L 316.000 294.800 257.800 294.800 L 199.600 294.800 199.600 320.200 M124.563 373.541 C 140.889 381.024,139.408 403.913,122.258 409.161 C 106.950 413.845,92.825 397.508,99.692 383.060 C 104.185 373.607,115.369 369.327,124.563 373.541 " stroke="none" fill="#ffe76e" fill-rule="evenodd"></path><path id="path5" d="M283.123 228.394 C 281.202 228.973,277.530 230.916,277.320 231.465 C 277.207 231.759,276.885 232.000,276.604 232.000 C 276.174 232.000,274.653 233.546,272.714 235.954 C 272.109 236.705,270.592 239.892,270.046 241.560 C 269.468 243.322,269.470 250.685,270.048 252.440 C 270.846 254.862,272.449 257.933,273.032 258.157 C 273.344 258.277,273.600 258.615,273.600 258.909 C 273.600 259.553,276.051 262.000,276.696 262.000 C 276.948 262.000,277.390 262.319,277.677 262.709 C 277.965 263.099,279.010 263.753,280.000 264.163 C 280.990 264.573,282.406 265.173,283.146 265.495 C 284.753 266.195,293.522 266.084,294.439 265.352 C 294.747 265.106,295.676 264.686,296.502 264.420 C 300.016 263.288,305.386 257.493,306.395 253.743 C 306.683 252.674,307.071 251.629,307.259 251.420 C 307.694 250.935,307.710 242.400,307.276 242.400 C 307.097 242.400,306.722 241.506,306.442 240.414 C 306.162 239.322,305.408 237.703,304.767 236.817 C 304.125 235.932,303.600 235.106,303.600 234.984 C 303.600 234.586,300.932 232.000,300.522 232.000 C 300.303 232.000,299.813 231.656,299.433 231.237 C 299.053 230.817,298.170 230.242,297.471 229.959 C 296.772 229.677,296.110 229.336,296.000 229.203 C 295.132 228.153,285.856 227.569,283.123 228.394 M111.800 372.541 C 93.638 378.634,93.314 403.295,111.321 409.010 C 131.012 415.259,145.062 389.341,129.082 376.246 C 124.701 372.656,116.621 370.924,111.800 372.541 " stroke="none" fill="#ffffff" fill-rule="evenodd"></path><path id="path6" d="M113.792 25.172 C 113.127 25.331,112.091 25.784,111.489 26.179 L 110.394 26.896 110.497 51.148 L 110.600 75.400 113.100 75.519 L 115.600 75.638 115.600 63.166 L 115.600 50.693 116.664 49.779 C 117.249 49.276,118.355 48.747,119.121 48.604 C 119.888 48.460,120.761 48.096,121.062 47.795 C 122.458 46.399,127.168 46.711,128.761 48.304 C 130.905 50.448,130.992 51.013,131.122 63.700 L 131.244 75.600 133.822 75.600 L 136.400 75.600 136.400 63.200 C 136.400 55.200,136.258 50.800,136.000 50.800 C 135.780 50.800,135.600 50.545,135.600 50.232 C 135.600 49.543,134.328 47.056,133.874 46.858 C 133.695 46.780,133.394 46.310,133.205 45.814 C 132.952 45.147,132.416 44.841,131.143 44.637 C 130.198 44.486,129.290 44.146,129.126 43.881 C 128.734 43.247,123.222 43.318,122.824 43.962 C 122.666 44.217,121.566 44.580,120.381 44.767 C 118.882 45.004,118.055 45.366,117.664 45.954 C 115.837 48.706,115.600 47.540,115.600 35.800 C 115.600 29.750,115.465 24.818,115.300 24.841 C 115.135 24.863,114.456 25.012,113.792 25.172 M96.100 33.482 C 95.605 33.578,95.200 33.811,95.200 34.001 C 95.200 34.191,94.705 34.404,94.100 34.473 L 93.000 34.600 92.887 39.100 L 92.774 43.600 90.987 43.600 L 89.200 43.600 89.200 45.200 L 89.200 46.800 91.000 46.800 L 92.800 46.800 92.800 58.620 C 92.800 71.437,92.857 71.810,95.035 73.400 C 95.639 73.840,96.355 74.420,96.626 74.689 C 96.898 74.958,97.859 75.296,98.760 75.440 C 99.662 75.584,100.400 75.859,100.400 76.051 C 100.400 76.243,101.120 76.400,102.000 76.400 L 103.600 76.400 103.600 74.800 C 103.600 73.202,103.598 73.200,102.013 73.200 C 100.730 73.200,100.156 72.929,99.013 71.787 L 97.600 70.373 97.600 58.587 L 97.600 46.800 100.600 46.800 L 103.600 46.800 103.600 45.200 L 103.600 43.600 100.600 43.600 L 97.600 43.600 97.600 38.400 C 97.600 35.540,97.465 33.225,97.300 33.254 C 97.135 33.284,96.595 33.387,96.100 33.482 M30.618 43.840 C 30.266 44.191,29.218 44.573,28.289 44.688 C 27.329 44.807,26.230 45.265,25.741 45.749 C 25.269 46.217,24.324 47.110,23.641 47.734 L 22.400 48.868 22.400 69.536 L 22.400 90.204 23.900 90.732 C 24.725 91.022,25.895 91.357,26.500 91.475 L 27.600 91.691 27.600 82.645 L 27.600 73.600 28.500 73.609 C 28.995 73.614,29.850 73.970,30.400 74.400 C 30.950 74.830,31.681 75.186,32.024 75.191 C 32.366 75.196,32.996 75.464,33.424 75.787 C 34.287 76.440,40.400 76.665,40.400 76.043 C 40.400 75.847,40.809 75.584,41.308 75.459 C 41.807 75.334,42.572 74.899,43.008 74.493 C 43.444 74.087,44.385 73.497,45.100 73.180 C 46.012 72.776,46.400 72.336,46.400 71.702 C 46.400 71.206,46.580 70.800,46.800 70.800 C 47.020 70.800,47.200 70.524,47.200 70.187 C 47.200 69.851,47.471 69.471,47.801 69.344 C 48.132 69.217,48.684 68.146,49.028 66.964 C 49.371 65.782,49.821 64.711,50.026 64.584 C 50.539 64.267,50.514 55.200,50.000 55.200 C 49.780 55.200,49.600 54.891,49.600 54.513 C 49.600 53.509,48.350 50.400,47.946 50.400 C 47.756 50.400,47.600 50.124,47.600 49.787 C 47.600 49.451,47.330 49.071,47.000 48.945 C 46.670 48.818,46.400 48.284,46.400 47.757 C 46.400 47.231,46.216 46.800,45.991 46.800 C 45.767 46.800,45.387 46.370,45.147 45.844 C 44.836 45.160,44.269 44.817,43.156 44.639 C 42.156 44.480,41.600 44.178,41.600 43.795 C 41.600 42.883,31.534 42.923,30.618 43.840 M58.954 43.776 C 58.833 44.092,58.208 44.466,57.567 44.607 L 56.400 44.864 56.400 56.697 C 56.400 68.570,56.741 71.600,58.077 71.600 C 58.255 71.600,58.400 71.793,58.400 72.029 C 58.400 72.488,59.382 73.600,59.788 73.600 C 59.923 73.600,60.420 73.960,60.892 74.400 C 61.364 74.840,62.055 75.200,62.426 75.200 C 62.798 75.200,63.326 75.470,63.600 75.800 C 64.139 76.449,70.800 76.706,70.800 76.077 C 70.800 75.900,72.060 75.427,73.600 75.028 C 75.140 74.629,76.400 74.144,76.400 73.951 C 76.400 73.758,76.850 73.600,77.400 73.600 C 78.388 73.600,78.400 73.640,78.400 77.000 C 78.400 78.870,78.243 80.400,78.051 80.400 C 77.859 80.400,77.587 81.123,77.445 82.006 C 77.304 82.889,76.845 83.955,76.425 84.375 C 76.004 84.796,75.468 85.500,75.232 85.941 C 74.949 86.469,74.053 86.910,72.601 87.235 C 71.391 87.506,70.400 87.850,70.400 87.999 C 70.400 88.149,69.140 88.509,67.600 88.800 C 64.756 89.337,64.389 89.685,65.322 90.961 C 66.061 91.971,74.133 91.203,75.200 90.021 C 75.629 89.546,77.220 88.800,77.804 88.800 C 78.143 88.800,78.585 88.365,78.788 87.832 C 78.990 87.300,79.400 86.715,79.699 86.532 C 80.392 86.109,81.600 83.529,81.600 82.473 C 81.600 82.029,81.825 81.592,82.100 81.500 C 82.491 81.370,82.600 77.225,82.600 62.567 L 82.600 43.800 80.200 43.800 L 77.800 43.800 77.586 57.000 C 77.469 64.260,77.334 70.226,77.286 70.258 C 73.951 72.508,66.685 73.694,65.680 72.153 C 65.526 71.917,64.877 71.471,64.237 71.162 C 63.597 70.853,62.877 70.240,62.637 69.800 C 62.397 69.360,62.020 68.872,61.800 68.715 C 61.552 68.538,61.356 63.632,61.284 55.815 L 61.168 43.200 60.171 43.200 C 59.623 43.200,59.076 43.459,58.954 43.776 M150.911 43.787 C 150.730 44.110,149.866 44.523,148.991 44.703 C 147.716 44.967,147.270 45.307,146.743 46.416 C 146.382 47.177,145.707 48.143,145.243 48.562 C 144.779 48.981,144.400 49.566,144.400 49.862 C 144.400 50.158,144.159 50.400,143.864 50.400 C 143.032 50.400,142.400 52.221,142.400 54.619 C 142.400 55.818,142.220 56.800,142.000 56.800 C 141.778 56.800,141.600 57.867,141.600 59.200 C 141.600 60.533,141.778 61.600,142.000 61.600 C 142.220 61.600,142.400 62.568,142.400 63.751 C 142.400 66.028,143.313 68.786,144.243 69.320 C 144.549 69.496,144.800 69.889,144.800 70.193 C 144.800 70.497,145.160 70.860,145.600 71.000 C 146.040 71.140,146.400 71.571,146.400 71.959 C 146.400 72.347,146.895 72.920,147.500 73.232 C 148.105 73.544,148.690 73.889,148.800 73.999 C 149.258 74.458,151.707 75.600,152.232 75.600 C 152.545 75.600,152.800 75.780,152.800 76.000 C 152.800 76.233,154.133 76.400,156.000 76.400 C 157.760 76.400,159.200 76.249,159.200 76.064 C 159.200 75.879,159.939 75.484,160.843 75.186 C 161.746 74.888,162.575 74.409,162.685 74.122 C 162.795 73.835,163.220 73.600,163.629 73.600 C 164.615 73.600,167.200 70.984,167.200 69.987 C 167.200 69.554,167.470 69.200,167.800 69.200 C 168.169 69.200,168.400 68.825,168.400 68.224 C 168.400 67.687,168.580 67.136,168.800 67.000 C 169.020 66.864,169.200 66.403,169.200 65.976 C 169.200 65.549,169.444 65.200,169.741 65.200 C 170.449 65.200,170.882 60.294,170.536 56.200 C 170.356 54.070,170.126 53.200,169.741 53.200 C 169.444 53.200,169.200 52.958,169.200 52.661 C 169.200 51.898,168.093 49.776,167.392 49.193 C 167.066 48.923,166.800 48.360,166.800 47.941 C 166.800 47.498,166.383 47.022,165.800 46.800 C 165.250 46.591,164.800 46.174,164.800 45.873 C 164.800 45.573,164.051 45.102,163.136 44.828 C 162.221 44.554,161.218 44.076,160.908 43.765 C 160.077 42.934,151.377 42.954,150.911 43.787 M184.605 43.852 C 184.247 44.210,183.150 44.594,182.168 44.705 C 180.999 44.837,180.074 45.231,179.491 45.846 C 179.001 46.363,178.384 46.789,178.121 46.793 C 177.857 46.797,177.182 47.226,176.621 47.746 L 175.600 48.692 175.600 62.146 L 175.600 75.600 178.200 75.600 L 180.800 75.600 180.800 62.000 C 180.800 48.667,180.816 48.400,181.600 48.400 C 182.040 48.400,182.400 48.211,182.400 47.980 C 182.400 47.120,185.191 46.400,188.522 46.400 C 192.345 46.400,195.600 48.172,195.600 50.254 C 195.600 50.774,195.780 51.200,196.000 51.200 C 196.258 51.200,196.400 55.533,196.400 63.400 L 196.400 75.600 198.811 75.600 L 201.221 75.600 201.084 62.500 C 201.008 55.295,200.801 48.898,200.623 48.285 C 200.232 46.930,198.429 44.800,197.674 44.800 C 197.373 44.800,196.669 44.440,196.109 44.000 C 194.719 42.907,185.667 42.790,184.605 43.852 M39.620 47.010 C 40.269 47.346,40.800 47.796,40.800 48.010 C 40.800 48.225,41.079 48.400,41.420 48.400 C 42.259 48.400,43.082 50.506,43.423 53.526 C 43.578 54.897,43.862 56.114,44.053 56.233 C 44.506 56.513,44.506 63.087,44.053 63.368 C 43.861 63.486,43.590 64.351,43.449 65.291 C 43.014 68.191,42.269 70.338,41.620 70.563 C 40.868 70.823,39.641 71.609,38.849 72.339 C 37.964 73.155,32.366 72.823,31.443 71.900 C 31.058 71.515,30.452 71.200,30.097 71.200 C 29.742 71.200,29.035 70.809,28.526 70.330 C 27.166 69.053,27.048 48.400,28.400 48.400 C 28.840 48.400,29.200 48.241,29.200 48.047 C 29.200 47.707,29.855 47.412,32.000 46.786 C 33.877 46.239,38.384 46.371,39.620 47.010 M159.687 47.400 C 160.280 47.950,160.984 48.400,161.251 48.400 C 162.061 48.400,163.200 49.670,163.200 50.573 C 163.200 51.040,163.447 51.777,163.748 52.211 C 165.408 54.598,165.621 65.793,164.018 66.327 C 163.802 66.399,163.503 67.108,163.354 67.902 C 162.621 71.814,156.202 74.711,152.725 72.700 C 151.271 71.859,150.400 71.047,150.400 70.531 C 150.400 70.261,150.175 69.896,149.899 69.720 C 149.624 69.544,149.129 68.860,148.800 68.200 C 148.471 67.540,148.049 66.889,147.862 66.753 C 146.437 65.713,146.767 51.200,148.216 51.200 C 148.508 51.200,148.873 50.795,149.029 50.300 C 150.084 46.937,157.122 45.022,159.687 47.400 M106.662 163.100 C 106.494 163.371,173.694 163.370,270.400 163.098 C 290.310 163.042,261.656 162.952,206.724 162.898 C 151.792 162.844,106.764 162.935,106.662 163.100 M306.914 166.800 C 306.909 168.230,307.032 170.750,307.188 172.400 C 307.445 175.129,307.473 175.202,307.496 173.200 C 307.509 171.990,307.386 169.470,307.222 167.600 C 306.933 164.309,306.924 164.283,306.914 166.800 M105.063 173.500 C 104.962 173.665,104.795 175.960,104.692 178.600 C 104.502 183.453,104.594 183.060,105.135 176.700 C 105.430 173.239,105.422 172.914,105.063 173.500 M308.942 192.533 C 309.131 195.650,309.401 198.327,309.542 198.482 C 309.684 198.636,309.620 196.175,309.400 193.012 C 309.180 189.850,308.910 187.173,308.800 187.064 C 308.690 186.955,308.754 189.416,308.942 192.533 M103.060 193.503 C 102.957 193.670,102.790 196.055,102.688 198.803 C 102.506 203.744,102.551 203.533,103.134 196.700 C 103.430 193.232,103.423 192.916,103.060 193.503 M310.916 212.600 C 310.910 214.140,311.032 216.750,311.188 218.400 C 311.444 221.118,311.473 221.193,311.493 219.200 C 311.505 217.990,311.383 215.380,311.221 213.400 C 310.929 209.828,310.927 209.822,310.916 212.600 M101.011 215.300 C 100.756 216.078,100.175 226.759,100.400 226.536 C 100.610 226.328,101.482 214.798,101.287 214.799 C 101.226 214.800,101.101 215.025,101.011 215.300 M157.400 216.800 L 151.800 217.035 157.276 217.117 C 160.588 217.167,162.850 217.042,163.000 216.800 C 163.136 216.580,163.192 216.437,163.124 216.483 C 163.056 216.528,160.480 216.671,157.400 216.800 M233.518 217.275 C 233.673 217.426,235.727 217.606,238.082 217.675 C 240.437 217.744,242.237 217.676,242.082 217.525 C 241.927 217.374,239.873 217.194,237.518 217.125 C 235.163 217.056,233.363 217.124,233.518 217.275 M150.965 227.561 C 150.764 230.622,150.715 233.055,150.855 232.967 C 151.152 232.782,151.780 222.447,151.511 222.177 C 151.411 222.078,151.166 224.501,150.965 227.561 M312.917 235.000 C 312.910 236.320,313.032 238.750,313.188 240.400 L 313.471 243.400 313.483 241.000 C 313.490 239.680,313.368 237.250,313.212 235.600 L 312.929 232.600 312.917 235.000 M99.144 237.300 C 98.968 237.611,98.234 248.702,98.400 248.538 C 98.510 248.430,98.780 245.834,99.000 242.770 C 99.351 237.876,99.377 236.886,99.144 237.300 M262.332 239.918 C 262.405 241.393,262.585 242.727,262.732 242.882 C 262.880 243.037,262.940 241.957,262.868 240.482 C 262.795 239.007,262.615 237.673,262.468 237.518 C 262.320 237.363,262.260 238.443,262.332 239.918 M149.165 245.900 C 149.146 246.945,149.011 249.366,148.864 251.281 C 148.718 253.195,148.714 254.635,148.856 254.481 C 149.192 254.116,149.756 244.000,149.440 244.000 C 149.308 244.000,149.184 244.855,149.165 245.900 M314.873 258.708 C 315.391 265.479,315.501 265.951,315.314 260.600 C 315.213 257.740,315.006 255.268,314.853 255.108 C 314.700 254.947,314.709 256.567,314.873 258.708 M264.332 261.918 C 264.405 263.393,264.585 264.727,264.732 264.882 C 264.880 265.037,264.940 263.957,264.868 262.482 C 264.795 261.007,264.615 259.673,264.468 259.518 C 264.320 259.363,264.260 260.443,264.332 261.918 M97.144 259.700 C 96.968 260.011,96.234 271.102,96.400 270.938 C 96.510 270.830,96.780 268.234,97.000 265.170 C 97.351 260.276,97.377 259.286,97.144 259.700 M147.540 265.300 C 147.363 265.594,146.632 276.703,146.800 276.537 C 147.002 276.337,147.886 265.199,147.700 265.200 C 147.645 265.200,147.573 265.245,147.540 265.300 M94.600 288.000 C 94.440 290.883,94.396 293.329,94.502 293.435 C 94.609 293.542,94.826 291.270,94.986 288.386 C 95.145 285.502,95.189 283.056,95.084 282.950 C 94.978 282.845,94.760 285.117,94.600 288.000 M145.420 287.300 C 145.335 287.575,145.154 289.465,145.018 291.500 L 144.771 295.200 172.286 295.103 L 199.800 295.006 172.498 294.900 L 145.196 294.794 145.431 291.297 C 145.561 289.374,145.736 287.575,145.821 287.300 C 145.906 287.025,145.885 286.800,145.775 286.800 C 145.665 286.800,145.505 287.025,145.420 287.300 M92.607 310.207 C 92.447 313.200,92.402 315.736,92.509 315.842 C 92.615 315.948,92.833 313.586,92.993 310.593 C 93.153 307.600,93.198 305.064,93.091 304.958 C 92.985 304.852,92.767 307.214,92.607 310.207 M199.301 307.800 C 199.305 308.680,199.387 308.993,199.483 308.495 C 199.579 307.998,199.575 307.278,199.475 306.895 C 199.375 306.513,199.296 306.920,199.301 307.800 M199.200 329.999 L 199.200 345.197 144.300 345.300 L 89.400 345.403 144.500 345.501 L 199.600 345.600 199.600 330.200 C 199.600 321.730,199.510 314.800,199.400 314.800 C 199.290 314.800,199.200 321.639,199.200 329.999 M91.064 327.100 C 90.963 327.265,90.796 329.740,90.692 332.600 C 90.498 337.956,90.609 337.473,91.128 330.700 C 91.424 326.833,91.418 326.520,91.064 327.100 " stroke="none" fill="#646464" fill-rule="evenodd"></path></g></svg>